<?xml version="1.0" standalone="no"?>
<!DOCTYPE svg PUBLIC "-//W3C//DTD SVG 20010904//EN"
 "http://www.w3.org/TR/2001/REC-SVG-20010904/DTD/svg10.dtd">
<svg version="1.0" xmlns="http://www.w3.org/2000/svg"
 width="96.000000pt" height="96.000000pt" viewBox="0 0 96.000000 96.000000"
 preserveAspectRatio="xMidYMid meet">
<metadata>
Created by potrace 1.11, written by Peter Selinger 2001-2013
</metadata>
<g transform="translate(0.000000,96.000000) scale(0.100000,-0.100000)"
fill="#000000" stroke="none">
<path d="M0 480 l0 -480 480 0 480 0 0 480 0 480 -480 0 -480 0 0 -480z m596
289 c83 -15 175 -63 235 -123 l51 -51 -96 -3 c-85 -2 -101 0 -126 18 -74 53
-221 49 -299 -7 -50 -36 -71 -71 -71 -121 0 -53 34 -100 95 -131 67 -35 189
-37 251 -4 39 21 104 84 104 102 0 4 35 7 78 7 l77 -1 -3 -29 c-15 -135 -239
-262 -426 -241 -133 15 -227 78 -294 198 -18 32 -46 66 -62 75 -17 9 -30 19
-30 22 0 3 13 13 30 22 16 9 44 43 62 75 90 160 236 226 424 192z"/>
</g>
</svg>
